<mxfile host="65bd71144e">
    <diagram id="wImYX9leGLHuQFXVxH7y" name="第 1 页">
        <mxGraphModel dx="1159" dy="1942" grid="1" gridSize="10" guides="1" tooltips="1" connect="1" arrows="1" fold="1" page="1" pageScale="1" pageWidth="827" pageHeight="1169" math="0" shadow="0">
            <root>
                <mxCell id="0"/>
                <mxCell id="1" parent="0"/>
                <mxCell id="384" value="F7001" style="swimlane;fontStyle=0;childLayout=stackLayout;horizontal=1;startSize=30;horizontalStack=0;resizeParent=1;resizeParentMax=0;resizeLast=0;collapsible=1;marginBottom=0;whiteSpace=wrap;html=1;fontFamily=Helvetica;fontSize=12;fontColor=default;fillColor=none;gradientColor=none;" parent="1" vertex="1">
                    <mxGeometry x="18" y="-1065" width="140" height="60" as="geometry"/>
                </mxCell>
                <mxCell id="385" value="频率：15&amp;nbsp; -&amp;nbsp; 20Hz" style="text;strokeColor=none;fillColor=none;align=left;verticalAlign=middle;spacingLeft=4;spacingRight=4;overflow=hidden;points=[[0,0.5],[1,0.5]];portConstraint=eastwest;rotatable=0;whiteSpace=wrap;html=1;fontFamily=Helvetica;fontSize=12;fontColor=default;" parent="384" vertex="1">
                    <mxGeometry y="30" width="140" height="30" as="geometry"/>
                </mxCell>
                <mxCell id="388" value="FIT7101" style="swimlane;fontStyle=0;childLayout=stackLayout;horizontal=1;startSize=30;horizontalStack=0;resizeParent=1;resizeParentMax=0;resizeLast=0;collapsible=1;marginBottom=0;whiteSpace=wrap;html=1;fontFamily=Helvetica;fontSize=12;fontColor=default;fillColor=none;gradientColor=none;" parent="1" vertex="1">
                    <mxGeometry x="18" y="-995" width="140" height="60" as="geometry"/>
                </mxCell>
                <mxCell id="389" value="进水流量：8 -&amp;nbsp; 12m³/h" style="text;strokeColor=none;fillColor=none;align=left;verticalAlign=middle;spacingLeft=4;spacingRight=4;overflow=hidden;points=[[0,0.5],[1,0.5]];portConstraint=eastwest;rotatable=0;whiteSpace=wrap;html=1;fontFamily=Helvetica;fontSize=12;fontColor=default;" parent="388" vertex="1">
                    <mxGeometry y="30" width="140" height="30" as="geometry"/>
                </mxCell>
                <UserObject label="FIT7201" tags="" id="390">
                    <mxCell style="swimlane;fontStyle=0;childLayout=stackLayout;horizontal=1;startSize=30;horizontalStack=0;resizeParent=1;resizeParentMax=0;resizeLast=0;collapsible=1;marginBottom=0;whiteSpace=wrap;html=1;fontFamily=Helvetica;fontSize=12;fontColor=default;fillColor=none;gradientColor=none;" parent="1" vertex="1">
                        <mxGeometry x="18" y="-925" width="140" height="60" as="geometry"/>
                    </mxCell>
                </UserObject>
                <mxCell id="391" value="进料流量：14 -&amp;nbsp; 15m³/h" style="text;strokeColor=none;fillColor=none;align=left;verticalAlign=middle;spacingLeft=4;spacingRight=4;overflow=hidden;points=[[0,0.5],[1,0.5]];portConstraint=eastwest;rotatable=0;whiteSpace=wrap;html=1;fontFamily=Helvetica;fontSize=12;fontColor=default;" parent="390" vertex="1">
                    <mxGeometry y="30" width="140" height="30" as="geometry"/>
                </mxCell>
                <mxCell id="427" value="" style="edgeStyle=none;html=1;fontFamily=Helvetica;fontSize=12;fontColor=default;" parent="1" source="425" target="426" edge="1">
                    <mxGeometry relative="1" as="geometry"/>
                </mxCell>
                <mxCell id="425" value="Start" style="ellipse;align=center;" parent="1" vertex="1">
                    <mxGeometry x="380" y="-1086" width="80" height="30" as="geometry"/>
                </mxCell>
                <mxCell id="431" value="" style="edgeStyle=none;html=1;fontFamily=Helvetica;fontSize=12;fontColor=default;" parent="1" source="426" target="430" edge="1">
                    <mxGeometry relative="1" as="geometry"/>
                </mxCell>
                <mxCell id="426" value="确认现场&lt;br&gt;人员是否在安全&lt;br&gt;区域" style="rhombus;whiteSpace=wrap;html=1;align=center;" parent="1" vertex="1">
                    <mxGeometry x="350" y="-1015" width="140" height="90" as="geometry"/>
                </mxCell>
                <mxCell id="440" style="edgeStyle=none;html=1;exitX=0.5;exitY=1;exitDx=0;exitDy=0;entryX=0.5;entryY=0;entryDx=0;entryDy=0;fontFamily=Helvetica;fontSize=12;fontColor=default;" parent="1" source="430" target="439" edge="1">
                    <mxGeometry relative="1" as="geometry"/>
                </mxCell>
                <mxCell id="430" value="检查机封水&lt;br&gt;是否正常" style="rhombus;whiteSpace=wrap;html=1;" parent="1" vertex="1">
                    <mxGeometry x="370" y="-884" width="100" height="90" as="geometry"/>
                </mxCell>
                <mxCell id="448" style="edgeStyle=none;html=1;exitX=0.5;exitY=1;exitDx=0;exitDy=0;entryX=0.5;entryY=0;entryDx=0;entryDy=0;fontFamily=Helvetica;fontSize=12;fontColor=default;" parent="1" source="439" target="443" edge="1">
                    <mxGeometry relative="1" as="geometry"/>
                </mxCell>
                <mxCell id="439" value="确认排空阀&lt;br&gt;V8026是否关闭" style="rhombus;whiteSpace=wrap;html=1;" parent="1" vertex="1">
                    <mxGeometry x="360" y="-746" width="120" height="90" as="geometry"/>
                </mxCell>
                <mxCell id="441" value="" style="edgeStyle=none;html=1;fontFamily=Helvetica;fontSize=12;fontColor=default;" parent="1" source="443" target="444" edge="1">
                    <mxGeometry relative="1" as="geometry"/>
                </mxCell>
                <mxCell id="442" value="" style="edgeStyle=none;html=1;fontFamily=Helvetica;fontSize=12;fontColor=default;" parent="1" source="443" target="446" edge="1">
                    <mxGeometry relative="1" as="geometry"/>
                </mxCell>
                <mxCell id="443" value="P8001是否打开" style="rhombus;whiteSpace=wrap;html=1;" parent="1" vertex="1">
                    <mxGeometry x="360" y="-606" width="120" height="75" as="geometry"/>
                </mxCell>
                <mxCell id="444" value="进水PID自动模式&lt;br&gt;进料PID自动模式" style="whiteSpace=wrap;html=1;" parent="1" vertex="1">
                    <mxGeometry x="360" y="-441" width="120" height="70" as="geometry"/>
                </mxCell>
                <mxCell id="445" value="是" style="text;strokeColor=none;align=center;fillColor=none;html=1;verticalAlign=middle;whiteSpace=wrap;rounded=0;fontFamily=Helvetica;fontSize=12;fontColor=default;" parent="1" vertex="1">
                    <mxGeometry x="381" y="-507" width="38" height="30" as="geometry"/>
                </mxCell>
                <mxCell id="446" value="进水PID手动模式&lt;br&gt;进料PID手动模式&lt;br&gt;进水阀FV7101全关" style="whiteSpace=wrap;html=1;" parent="1" vertex="1">
                    <mxGeometry x="560" y="-598.5" width="120" height="60" as="geometry"/>
                </mxCell>
                <mxCell id="447" value="否" style="text;strokeColor=none;align=center;fillColor=none;html=1;verticalAlign=middle;whiteSpace=wrap;rounded=0;fontFamily=Helvetica;fontSize=12;fontColor=default;" parent="1" vertex="1">
                    <mxGeometry x="495" y="-600" width="40" height="30" as="geometry"/>
                </mxCell>
                <mxCell id="449" value="是" style="text;strokeColor=none;align=center;fillColor=none;html=1;verticalAlign=middle;whiteSpace=wrap;rounded=0;fontFamily=Helvetica;fontSize=12;fontColor=default;" parent="1" vertex="1">
                    <mxGeometry x="381" y="-651" width="38" height="30" as="geometry"/>
                </mxCell>
                <mxCell id="450" value="是" style="text;strokeColor=none;align=center;fillColor=none;html=1;verticalAlign=middle;whiteSpace=wrap;rounded=0;fontFamily=Helvetica;fontSize=12;fontColor=default;" parent="1" vertex="1">
                    <mxGeometry x="381" y="-792" width="38" height="30" as="geometry"/>
                </mxCell>
                <mxCell id="451" value="是" style="text;strokeColor=none;align=center;fillColor=none;html=1;verticalAlign=middle;whiteSpace=wrap;rounded=0;fontFamily=Helvetica;fontSize=12;fontColor=default;" parent="1" vertex="1">
                    <mxGeometry x="381" y="-923" width="38" height="30" as="geometry"/>
                </mxCell>
                <mxCell id="458" value="" style="edgeStyle=none;html=1;fontFamily=Helvetica;fontSize=12;fontColor=default;" parent="1" source="452" target="457" edge="1">
                    <mxGeometry relative="1" as="geometry"/>
                </mxCell>
                <mxCell id="452" value="Start" style="ellipse" parent="1" vertex="1">
                    <mxGeometry x="369" y="-306" width="80" height="30" as="geometry"/>
                </mxCell>
                <mxCell id="462" value="" style="edgeStyle=none;html=1;fontFamily=Helvetica;fontSize=12;fontColor=default;" parent="1" source="457" target="461" edge="1">
                    <mxGeometry relative="1" as="geometry"/>
                </mxCell>
                <mxCell id="457" value="启动刮刀&lt;br&gt;K7001" style="whiteSpace=wrap;html=1;" parent="1" vertex="1">
                    <mxGeometry x="349" y="-158" width="120" height="60" as="geometry"/>
                </mxCell>
                <mxCell id="464" value="" style="edgeStyle=none;html=1;fontFamily=Helvetica;fontSize=12;fontColor=default;" parent="1" source="461" target="463" edge="1">
                    <mxGeometry relative="1" as="geometry"/>
                </mxCell>
                <mxCell id="461" value="计时器&lt;br&gt;5s" style="ellipse;whiteSpace=wrap;html=1;" parent="1" vertex="1">
                    <mxGeometry x="369" y="-46" width="80" height="80" as="geometry"/>
                </mxCell>
                <mxCell id="466" value="" style="edgeStyle=none;html=1;fontFamily=Helvetica;fontSize=12;fontColor=default;" parent="1" source="463" target="465" edge="1">
                    <mxGeometry relative="1" as="geometry"/>
                </mxCell>
                <mxCell id="463" value="启动搅拌器&lt;br&gt;A7001" style="whiteSpace=wrap;html=1;" parent="1" vertex="1">
                    <mxGeometry x="349" y="79" width="120" height="60" as="geometry"/>
                </mxCell>
                <mxCell id="468" value="" style="edgeStyle=none;html=1;fontFamily=Helvetica;fontSize=12;fontColor=default;" parent="1" source="465" target="467" edge="1">
                    <mxGeometry relative="1" as="geometry"/>
                </mxCell>
                <mxCell id="465" value="计时器&lt;br&gt;5s" style="ellipse;whiteSpace=wrap;html=1;" parent="1" vertex="1">
                    <mxGeometry x="369" y="204" width="80" height="80" as="geometry"/>
                </mxCell>
                <mxCell id="470" value="" style="edgeStyle=none;html=1;fontFamily=Helvetica;fontSize=12;fontColor=default;" parent="1" source="467" target="469" edge="1">
                    <mxGeometry relative="1" as="geometry"/>
                </mxCell>
                <mxCell id="467" value="启动真空转鼓&lt;br&gt;F7001" style="whiteSpace=wrap;html=1;" parent="1" vertex="1">
                    <mxGeometry x="349" y="349" width="120" height="60" as="geometry"/>
                </mxCell>
                <mxCell id="472" value="" style="edgeStyle=none;html=1;fontFamily=Helvetica;fontSize=12;fontColor=default;" parent="1" source="469" target="471" edge="1">
                    <mxGeometry relative="1" as="geometry"/>
                </mxCell>
                <mxCell id="469" value="计时器&lt;br&gt;5s" style="ellipse;whiteSpace=wrap;html=1;" parent="1" vertex="1">
                    <mxGeometry x="369" y="479" width="80" height="80" as="geometry"/>
                </mxCell>
                <mxCell id="484" value="" style="edgeStyle=none;html=1;fontFamily=Helvetica;fontSize=12;fontColor=default;" parent="1" source="471" target="483" edge="1">
                    <mxGeometry relative="1" as="geometry"/>
                </mxCell>
                <mxCell id="471" value="启动阀门V8001" style="whiteSpace=wrap;html=1;" parent="1" vertex="1">
                    <mxGeometry x="349" y="643" width="120" height="60" as="geometry"/>
                </mxCell>
                <mxCell id="485" style="edgeStyle=none;html=1;entryX=1;entryY=0.5;entryDx=0;entryDy=0;fontFamily=Helvetica;fontSize=12;fontColor=default;exitX=0.5;exitY=1;exitDx=0;exitDy=0;" parent="1" source="477" target="483" edge="1">
                    <mxGeometry relative="1" as="geometry">
                        <Array as="points">
                            <mxPoint x="569" y="775"/>
                        </Array>
                    </mxGeometry>
                </mxCell>
                <mxCell id="477" value="关闭阀门V8006" style="whiteSpace=wrap;html=1;" parent="1" vertex="1">
                    <mxGeometry x="508" y="643" width="120" height="60" as="geometry"/>
                </mxCell>
                <mxCell id="479" value="" style="edgeStyle=none;orthogonalLoop=1;jettySize=auto;html=1;fontFamily=Helvetica;fontSize=12;fontColor=default;" parent="1" edge="1">
                    <mxGeometry width="80" relative="1" as="geometry">
                        <mxPoint x="409" y="613" as="sourcePoint"/>
                        <mxPoint x="569" y="643" as="targetPoint"/>
                        <Array as="points">
                            <mxPoint x="569" y="613"/>
                        </Array>
                    </mxGeometry>
                </mxCell>
                <mxCell id="487" value="" style="edgeStyle=none;html=1;fontFamily=Helvetica;fontSize=12;fontColor=default;" parent="1" source="483" target="486" edge="1">
                    <mxGeometry relative="1" as="geometry"/>
                </mxCell>
                <mxCell id="483" value="" style="rhombus;whiteSpace=wrap;html=1;" parent="1" vertex="1">
                    <mxGeometry x="384" y="756" width="50" height="37" as="geometry"/>
                </mxCell>
                <mxCell id="489" value="" style="edgeStyle=none;html=1;fontFamily=Helvetica;fontSize=12;fontColor=default;" parent="1" source="486" target="488" edge="1">
                    <mxGeometry relative="1" as="geometry"/>
                </mxCell>
                <mxCell id="486" value="计时器&lt;br&gt;5s" style="ellipse;whiteSpace=wrap;html=1;" parent="1" vertex="1">
                    <mxGeometry x="369" y="850" width="80" height="80" as="geometry"/>
                </mxCell>
                <mxCell id="491" value="" style="edgeStyle=none;html=1;fontFamily=Helvetica;fontSize=12;fontColor=default;" parent="1" source="488" target="490" edge="1">
                    <mxGeometry relative="1" as="geometry"/>
                </mxCell>
                <mxCell id="488" value="启动淀粉乳泵&lt;br&gt;P8001" style="whiteSpace=wrap;html=1;" parent="1" vertex="1">
                    <mxGeometry x="349" y="987" width="120" height="60" as="geometry"/>
                </mxCell>
                <mxCell id="493" value="" style="edgeStyle=none;html=1;fontFamily=Helvetica;fontSize=12;fontColor=default;" parent="1" source="490" target="492" edge="1">
                    <mxGeometry relative="1" as="geometry"/>
                </mxCell>
                <mxCell id="490" value="计时器&lt;br&gt;5s" style="ellipse;whiteSpace=wrap;html=1;" parent="1" vertex="1">
                    <mxGeometry x="369" y="1117" width="80" height="80" as="geometry"/>
                </mxCell>
                <mxCell id="497" value="" style="edgeStyle=none;html=1;fontFamily=Helvetica;fontSize=12;fontColor=#FFFFFF;" parent="1" source="492" target="496" edge="1">
                    <mxGeometry relative="1" as="geometry"/>
                </mxCell>
                <mxCell id="492" value="启动皮带输送机&lt;br&gt;T7001" style="whiteSpace=wrap;html=1;" parent="1" vertex="1">
                    <mxGeometry x="349" y="1261" width="120" height="60" as="geometry"/>
                </mxCell>
                <mxCell id="494" value="&lt;p style=&quot;font-size: 15px;&quot; class=&quot;MsoNormal&quot;&gt;&lt;span&gt;当液位检测到达脱水机料槽高度值后，&lt;/span&gt;高度值160mm（液位设定值可调），范围：0-200mm。（此处液位高度根据现场情况进行调整。）&lt;/p&gt;&lt;p class=&quot;MsoNormal&quot;&gt;&lt;span&gt;&lt;/span&gt;&lt;/p&gt;" style="shape=note;whiteSpace=wrap;html=1;backgroundOutline=1;fontColor=#000000;darkOpacity=0.05;fillColor=#FFF9B2;strokeColor=none;fillStyle=solid;direction=west;gradientDirection=north;gradientColor=#FFF2A1;shadow=1;size=20;pointerEvents=1;fontFamily=Helvetica;fontSize=12;align=left;" parent="1" vertex="1">
                    <mxGeometry x="461.75" y="1380" width="354.25" height="102" as="geometry"/>
                </mxCell>
                <mxCell id="499" value="" style="edgeStyle=none;html=1;fontFamily=Helvetica;fontSize=12;fontColor=#FFFFFF;" parent="1" source="496" target="498" edge="1">
                    <mxGeometry relative="1" as="geometry"/>
                </mxCell>
                <mxCell id="496" value="计时器&lt;br&gt;5s" style="ellipse;whiteSpace=wrap;html=1;" parent="1" vertex="1">
                    <mxGeometry x="369" y="1391" width="80" height="80" as="geometry"/>
                </mxCell>
                <mxCell id="501" value="" style="edgeStyle=none;html=1;fontFamily=Helvetica;fontSize=12;fontColor=#FFFFFF;" parent="1" source="498" target="500" edge="1">
                    <mxGeometry relative="1" as="geometry"/>
                </mxCell>
                <mxCell id="498" value="启动滤液泵&lt;br&gt;P7006" style="whiteSpace=wrap;html=1;" parent="1" vertex="1">
                    <mxGeometry x="349" y="1533" width="120" height="60" as="geometry"/>
                </mxCell>
                <mxCell id="503" value="" style="edgeStyle=none;html=1;fontFamily=Helvetica;fontSize=12;fontColor=#FFFFFF;" parent="1" source="500" target="502" edge="1">
                    <mxGeometry relative="1" as="geometry"/>
                </mxCell>
                <mxCell id="500" value="计时器&lt;br&gt;5s" style="ellipse;whiteSpace=wrap;html=1;" parent="1" vertex="1">
                    <mxGeometry x="369" y="1802" width="80" height="80" as="geometry"/>
                </mxCell>
                <mxCell id="502" value="真空泵&lt;br&gt;P7001" style="whiteSpace=wrap;html=1;" parent="1" vertex="1">
                    <mxGeometry x="349" y="1948" width="120" height="60" as="geometry"/>
                </mxCell>
                <mxCell id="504" value="&lt;p style=&quot;&quot; class=&quot;MsoNormal&quot;&gt;&lt;font style=&quot;font-size: 15px;&quot;&gt;真空泵启动前先打开进水阀V7001，阀门打开后间隔T101：5秒（真空泵启动延迟时间T101：0~30秒），再启动真空泵，阀门V7001打开后一直常开。真空泵P7001关闭时阀门关闭。&lt;/font&gt;&lt;span&gt;&lt;/span&gt;&lt;/p&gt;&lt;p class=&quot;MsoNormal&quot;&gt;&lt;span&gt;&lt;/span&gt;&lt;/p&gt;" style="shape=note;whiteSpace=wrap;html=1;backgroundOutline=1;fontColor=#000000;darkOpacity=0.05;fillColor=#FFF9B2;strokeColor=none;fillStyle=solid;direction=west;gradientDirection=north;gradientColor=#FFF2A1;shadow=1;size=20;pointerEvents=1;fontFamily=Helvetica;fontSize=12;align=left;" parent="1" vertex="1">
                    <mxGeometry x="320" y="1648" width="360" height="117" as="geometry"/>
                </mxCell>
                <mxCell id="505" value="&lt;p style=&quot;font-size: 15px;&quot; class=&quot;MsoNormal&quot;&gt;&lt;font style=&quot;font-size: 15px;&quot;&gt;进水调节阀FV7101在泵P8001开启时打开自动PID，在泵P8001关闭，FV7101全部关闭。&lt;/font&gt;&lt;/p&gt;&lt;p style=&quot;font-size: 15px;&quot; class=&quot;MsoNormal&quot;&gt;&lt;font style=&quot;font-size: 15px;&quot;&gt;V8016, V8026关闭，溢流阀V8021打开。（在启动的时候，确保外排阀门都是关闭的。）&lt;/font&gt;&lt;span style=&quot;font-size: 13px;&quot;&gt;&lt;/span&gt;&lt;/p&gt;&lt;p class=&quot;MsoNormal&quot;&gt;&lt;span&gt;&lt;/span&gt;&lt;/p&gt;" style="shape=note;whiteSpace=wrap;html=1;backgroundOutline=1;fontColor=#000000;darkOpacity=0.05;fillColor=#FFF9B2;strokeColor=none;fillStyle=solid;direction=west;gradientDirection=north;gradientColor=#FFF2A1;shadow=1;size=20;pointerEvents=1;fontFamily=Helvetica;fontSize=12;align=left;" parent="1" vertex="1">
                    <mxGeometry x="490" y="-306" width="330" height="116" as="geometry"/>
                </mxCell>
                <mxCell id="506" value="第1步" style="shape=offPageConnector;whiteSpace=wrap;html=1;direction=north;" parent="1" vertex="1">
                    <mxGeometry x="210" y="-158" width="90" height="45" as="geometry"/>
                </mxCell>
                <mxCell id="509" value="1.启动前设置检查" style="text;strokeColor=none;fillColor=none;html=1;fontSize=20;fontStyle=1;verticalAlign=middle;align=center;" parent="1" vertex="1">
                    <mxGeometry x="18" y="-1122" width="160" height="40" as="geometry"/>
                </mxCell>
                <mxCell id="510" value="2.一键启动程序" style="text;strokeColor=none;fillColor=none;html=1;fontSize=20;fontStyle=1;verticalAlign=middle;align=center;" parent="1" vertex="1">
                    <mxGeometry x="10" y="-340" width="160" height="40" as="geometry"/>
                </mxCell>
                <mxCell id="511" value="第2步" style="shape=offPageConnector;whiteSpace=wrap;html=1;direction=north;" parent="1" vertex="1">
                    <mxGeometry x="210" y="86.5" width="90" height="45" as="geometry"/>
                </mxCell>
                <mxCell id="512" value="第3步" style="shape=offPageConnector;whiteSpace=wrap;html=1;direction=north;" parent="1" vertex="1">
                    <mxGeometry x="210" y="356.5" width="90" height="45" as="geometry"/>
                </mxCell>
                <mxCell id="513" value="第4步" style="shape=offPageConnector;whiteSpace=wrap;html=1;direction=north;" parent="1" vertex="1">
                    <mxGeometry x="210" y="650.5" width="90" height="45" as="geometry"/>
                </mxCell>
                <mxCell id="514" value="第5步" style="shape=offPageConnector;whiteSpace=wrap;html=1;direction=north;" parent="1" vertex="1">
                    <mxGeometry x="210" y="994.5" width="90" height="45" as="geometry"/>
                </mxCell>
                <mxCell id="515" value="第6步" style="shape=offPageConnector;whiteSpace=wrap;html=1;direction=north;" parent="1" vertex="1">
                    <mxGeometry x="210" y="1268.5" width="90" height="45" as="geometry"/>
                </mxCell>
                <mxCell id="516" value="第7步" style="shape=offPageConnector;whiteSpace=wrap;html=1;direction=north;" parent="1" vertex="1">
                    <mxGeometry x="210" y="1540.5" width="90" height="45" as="geometry"/>
                </mxCell>
                <mxCell id="517" value="第8步" style="shape=offPageConnector;whiteSpace=wrap;html=1;direction=north;" parent="1" vertex="1">
                    <mxGeometry x="210" y="1686" width="90" height="45" as="geometry"/>
                </mxCell>
                <mxCell id="518" value="第9步" style="shape=offPageConnector;whiteSpace=wrap;html=1;direction=north;" parent="1" vertex="1">
                    <mxGeometry x="210" y="1955.5" width="90" height="45" as="geometry"/>
                </mxCell>
                <mxCell id="519" value="&lt;font style=&quot;font-size: 15px;&quot;&gt;&lt;b&gt;是程序判断状态，还是执行动作？&lt;br&gt;&lt;br&gt;&lt;/b&gt;&lt;/font&gt;" style="shape=note;whiteSpace=wrap;html=1;backgroundOutline=1;fontColor=#000000;darkOpacity=0.05;fillColor=#e3c800;strokeColor=#B09500;fillStyle=solid;direction=west;gradientDirection=north;shadow=1;size=20;pointerEvents=1;" parent="1" vertex="1">
                    <mxGeometry x="662" y="633" width="128" height="80" as="geometry"/>
                </mxCell>
                <mxCell id="521" value="&lt;font style=&quot;font-size: 15px;&quot;&gt;&lt;b&gt;如果此次阀门状态不对，弹窗提示错误？&lt;br&gt;&lt;/b&gt;&lt;/font&gt;" style="shape=note;whiteSpace=wrap;html=1;backgroundOutline=1;fontColor=#000000;darkOpacity=0.05;fillColor=#e3c800;strokeColor=#B09500;fillStyle=solid;direction=west;gradientDirection=north;shadow=1;size=20;pointerEvents=1;" parent="1" vertex="1">
                    <mxGeometry x="490" y="-178" width="172" height="80" as="geometry"/>
                </mxCell>
                <mxCell id="522" value="清洗真空脱水机程序" style="text;strokeColor=none;fillColor=none;html=1;fontSize=23;fontStyle=1;verticalAlign=middle;align=center;" parent="1" vertex="1">
                    <mxGeometry x="840" y="-1157" width="210" height="40" as="geometry"/>
                </mxCell>
                <mxCell id="523" value="进料自控程序" style="text;strokeColor=none;fillColor=none;html=1;fontSize=23;fontStyle=1;verticalAlign=middle;align=left;" parent="1" vertex="1">
                    <mxGeometry x="18" y="-1162" width="210" height="40" as="geometry"/>
                </mxCell>
                <mxCell id="524" value="1.启动前设置及检查" style="text;strokeColor=none;fillColor=none;html=1;fontSize=20;fontStyle=1;verticalAlign=middle;align=center;" parent="1" vertex="1">
                    <mxGeometry x="840" y="-1117" width="190" height="40" as="geometry"/>
                </mxCell>
                <mxCell id="525" value="&lt;p style=&quot;&quot; class=&quot;MsoNormal&quot;&gt;&lt;span&gt;&lt;font style=&quot;font-size: 17px;&quot;&gt;&amp;nbsp; &amp;nbsp; &amp;nbsp; &amp;nbsp;当质检人员检测到湿淀粉水分过高，脱水机处理量下降，此时需要对脱水机执行清洗流程。清洗脱水机时需衔接好干燥工段。为保障连续生产线，需衔接好备用脱水机提取进入出粉状态。&lt;/font&gt;&lt;/span&gt;&lt;span&gt;&lt;/span&gt;&lt;/p&gt;" style="text;strokeColor=none;align=left;fillColor=none;html=1;verticalAlign=middle;whiteSpace=wrap;rounded=0;fontSize=23;" parent="1" vertex="1">
                    <mxGeometry x="840" y="-1084" width="730" height="110" as="geometry"/>
                </mxCell>
                <mxCell id="526" value="2.一键清洗停机程序" style="text;strokeColor=none;fillColor=none;html=1;fontSize=20;fontStyle=1;verticalAlign=middle;align=center;" parent="1" vertex="1">
                    <mxGeometry x="840" y="-935" width="190" height="40" as="geometry"/>
                </mxCell>
                <mxCell id="529" value="" style="edgeStyle=none;html=1;fontSize=17;" parent="1" source="527" target="528" edge="1">
                    <mxGeometry relative="1" as="geometry"/>
                </mxCell>
                <mxCell id="527" value="Start" style="ellipse" parent="1" vertex="1">
                    <mxGeometry x="1201" y="-860" width="80" height="30" as="geometry"/>
                </mxCell>
                <mxCell id="531" value="" style="edgeStyle=none;html=1;fontSize=15;" parent="1" source="528" target="530" edge="1">
                    <mxGeometry relative="1" as="geometry"/>
                </mxCell>
                <mxCell id="528" value="&lt;font style=&quot;font-size: 15px;&quot;&gt;启动清洗水阀&lt;br&gt;V8006&lt;br&gt;&lt;/font&gt;" style="whiteSpace=wrap;html=1;fillColor=#647687;fontColor=#ffffff;strokeColor=#314354;" parent="1" vertex="1">
                    <mxGeometry x="1181" y="-765" width="120" height="60" as="geometry"/>
                </mxCell>
                <mxCell id="533" value="" style="edgeStyle=none;html=1;fontSize=15;" parent="1" source="530" target="532" edge="1">
                    <mxGeometry relative="1" as="geometry"/>
                </mxCell>
                <mxCell id="530" value="&lt;font style=&quot;font-size: 15px;&quot;&gt;计时T102&lt;br&gt;5s&lt;/font&gt;" style="ellipse;whiteSpace=wrap;html=1;fillColor=#60a917;strokeColor=#2D7600;fontColor=#ffffff;" parent="1" vertex="1">
                    <mxGeometry x="1201" y="-635" width="80" height="80" as="geometry"/>
                </mxCell>
                <mxCell id="539" style="edgeStyle=none;html=1;exitX=0.5;exitY=1;exitDx=0;exitDy=0;entryX=0.5;entryY=0;entryDx=0;entryDy=0;fontSize=15;" parent="1" source="532" target="538" edge="1">
                    <mxGeometry relative="1" as="geometry"/>
                </mxCell>
                <mxCell id="532" value="&lt;font style=&quot;font-size: 15px;&quot;&gt;关闭淀粉乳泵阀&lt;br&gt;V8001&lt;/font&gt;" style="whiteSpace=wrap;html=1;fillColor=#647687;strokeColor=#314354;fontColor=#ffffff;" parent="1" vertex="1">
                    <mxGeometry x="1181" y="-465" width="120" height="60" as="geometry"/>
                </mxCell>
                <mxCell id="545" value="" style="edgeStyle=none;html=1;fontSize=15;" parent="1" source="538" target="544" edge="1">
                    <mxGeometry relative="1" as="geometry"/>
                </mxCell>
                <mxCell id="538" value="&lt;font style=&quot;font-size: 15px;&quot;&gt;计时T103&lt;br&gt;10s&lt;/font&gt;" style="ellipse;whiteSpace=wrap;html=1;fillColor=#008a00;strokeColor=#005700;fontColor=#ffffff;" parent="1" vertex="1">
                    <mxGeometry x="1201" y="-338" width="80" height="80" as="geometry"/>
                </mxCell>
                <mxCell id="540" value="&lt;p style=&quot;font-size: 15px;&quot; class=&quot;MsoNormal&quot;&gt;&lt;b&gt;淀粉乳前阀门延时关闭时间T102：0~30秒&lt;/b&gt;&lt;/p&gt;" style="shape=note;whiteSpace=wrap;html=1;backgroundOutline=1;fontColor=#000000;darkOpacity=0.05;fillColor=#f0a30a;strokeColor=#BD7000;fillStyle=solid;direction=west;gradientDirection=north;shadow=1;size=20;pointerEvents=1;align=left;" parent="1" vertex="1">
                    <mxGeometry x="1360" y="-635" width="200" height="80" as="geometry"/>
                </mxCell>
                <mxCell id="541" value="&lt;p style=&quot;font-size: 15px;&quot; class=&quot;MsoNormal&quot;&gt;&lt;b&gt;&lt;span&gt;淀粉乳泵及出口管道清洗时间&lt;/span&gt;&lt;span&gt;T&lt;/span&gt;&lt;span&gt;103&lt;/span&gt;&lt;span&gt;：0&lt;/span&gt;&lt;span&gt;~60&lt;/span&gt;&lt;span&gt;秒&lt;/span&gt;&lt;/b&gt;&lt;/p&gt;" style="shape=note;whiteSpace=wrap;html=1;backgroundOutline=1;fontColor=#000000;darkOpacity=0.05;fillColor=#f0a30a;strokeColor=#BD7000;fillStyle=solid;direction=west;gradientDirection=north;shadow=1;size=20;pointerEvents=1;align=left;" parent="1" vertex="1">
                    <mxGeometry x="1360" y="-331" width="200" height="80" as="geometry"/>
                </mxCell>
                <mxCell id="542" value="&lt;font style=&quot;font-size: 15px;&quot;&gt;第1步&lt;/font&gt;" style="shape=offPageConnector;whiteSpace=wrap;html=1;direction=north;" parent="1" vertex="1">
                    <mxGeometry x="1010" y="-757.5" width="90" height="45" as="geometry"/>
                </mxCell>
                <mxCell id="543" value="&lt;font style=&quot;font-size: 15px;&quot;&gt;第2步&lt;/font&gt;" style="shape=offPageConnector;whiteSpace=wrap;html=1;direction=north;" parent="1" vertex="1">
                    <mxGeometry x="1010" y="-457.5" width="90" height="45" as="geometry"/>
                </mxCell>
                <mxCell id="551" value="" style="edgeStyle=none;html=1;fontSize=15;" parent="1" source="544" target="550" edge="1">
                    <mxGeometry relative="1" as="geometry"/>
                </mxCell>
                <mxCell id="555" value="" style="edgeStyle=none;html=1;fontSize=15;" parent="1" source="544" target="554" edge="1">
                    <mxGeometry relative="1" as="geometry"/>
                </mxCell>
                <mxCell id="544" value="&lt;font style=&quot;font-size: 15px;&quot;&gt;停止淀粉乳泵&lt;br&gt;P8001&lt;/font&gt;" style="whiteSpace=wrap;html=1;fillColor=#647687;strokeColor=#314354;fontColor=#ffffff;" parent="1" vertex="1">
                    <mxGeometry x="1181" y="-168" width="120" height="60" as="geometry"/>
                </mxCell>
                <mxCell id="553" value="" style="edgeStyle=none;html=1;fontSize=15;" parent="1" source="550" target="552" edge="1">
                    <mxGeometry relative="1" as="geometry"/>
                </mxCell>
                <mxCell id="550" value="&lt;span style=&quot;font-size: 15px;&quot;&gt;关闭调节阀&lt;br&gt;&lt;/span&gt;FV7101" style="whiteSpace=wrap;html=1;fillColor=#647687;strokeColor=#314354;fontColor=#ffffff;" parent="1" vertex="1">
                    <mxGeometry x="1380" y="-168" width="120" height="60" as="geometry"/>
                </mxCell>
                <mxCell id="559" value="" style="edgeStyle=none;html=1;fontSize=15;" parent="1" source="552" target="558" edge="1">
                    <mxGeometry relative="1" as="geometry"/>
                </mxCell>
                <mxCell id="552" value="&lt;span style=&quot;font-size: 15px;&quot;&gt;关闭清洗水阀&lt;br&gt;&lt;/span&gt;V8006" style="whiteSpace=wrap;html=1;fillColor=#647687;strokeColor=#314354;fontColor=#ffffff;" parent="1" vertex="1">
                    <mxGeometry x="1561" y="-168" width="120" height="60" as="geometry"/>
                </mxCell>
                <mxCell id="563" value="" style="edgeStyle=none;html=1;fontSize=15;" parent="1" source="554" target="562" edge="1">
                    <mxGeometry relative="1" as="geometry"/>
                </mxCell>
                <mxCell id="554" value="" style="rhombus;whiteSpace=wrap;html=1;fillColor=#647687;fontColor=#ffffff;strokeColor=#314354;" parent="1" vertex="1">
                    <mxGeometry x="1201" y="-38" width="80" height="80" as="geometry"/>
                </mxCell>
                <mxCell id="557" value="&lt;font style=&quot;font-size: 15px;&quot;&gt;&lt;b&gt;排空阀是V8011 ？&lt;br&gt;&lt;/b&gt;&lt;/font&gt;" style="shape=note;whiteSpace=wrap;html=1;backgroundOutline=1;fontColor=#000000;darkOpacity=0.05;fillColor=#e3c800;strokeColor=#B09500;fillStyle=solid;direction=west;gradientDirection=north;shadow=1;size=20;pointerEvents=1;" parent="1" vertex="1">
                    <mxGeometry x="495" y="-741" width="172" height="80" as="geometry"/>
                </mxCell>
                <mxCell id="560" style="edgeStyle=none;html=1;exitX=0.5;exitY=1;exitDx=0;exitDy=0;fontSize=15;entryX=1;entryY=0.5;entryDx=0;entryDy=0;" parent="1" source="558" target="554" edge="1">
                    <mxGeometry relative="1" as="geometry">
                        <Array as="points">
                            <mxPoint x="1816"/>
                        </Array>
                    </mxGeometry>
                </mxCell>
                <mxCell id="558" value="&lt;span style=&quot;font-size: 15px;&quot;&gt;打开排空阀&lt;br&gt;V8011&lt;br&gt;&lt;/span&gt;" style="whiteSpace=wrap;html=1;fillColor=#647687;strokeColor=#314354;fontColor=#ffffff;" parent="1" vertex="1">
                    <mxGeometry x="1756" y="-168" width="120" height="60" as="geometry"/>
                </mxCell>
                <mxCell id="561" value="&lt;font style=&quot;font-size: 15px;&quot;&gt;第3步&lt;/font&gt;" style="shape=offPageConnector;whiteSpace=wrap;html=1;direction=north;" parent="1" vertex="1">
                    <mxGeometry x="1010" y="-158" width="90" height="45" as="geometry"/>
                </mxCell>
                <mxCell id="571" style="edgeStyle=none;html=1;exitX=0.5;exitY=1;exitDx=0;exitDy=0;entryX=0.5;entryY=0;entryDx=0;entryDy=0;fontSize=15;" parent="1" source="562" target="565" edge="1">
                    <mxGeometry relative="1" as="geometry"/>
                </mxCell>
                <mxCell id="562" value="&lt;font style=&quot;font-size: 15px;&quot;&gt;计时T104&lt;br&gt;15s&lt;/font&gt;" style="ellipse;whiteSpace=wrap;html=1;fillColor=#008a00;strokeColor=#005700;fontColor=#ffffff;" parent="1" vertex="1">
                    <mxGeometry x="1201" y="122" width="80" height="80" as="geometry"/>
                </mxCell>
                <mxCell id="564" value="&lt;p style=&quot;font-size: 15px;&quot; class=&quot;MsoNormal&quot;&gt;&lt;b&gt;&lt;span&gt;淀粉泵清洗水排空时间&lt;/span&gt;&lt;span&gt;T&lt;/span&gt;&lt;span&gt;104&lt;/span&gt;&lt;span&gt;：0&lt;/span&gt;&lt;span&gt;~60&lt;/span&gt;&lt;span&gt;秒&lt;/span&gt;&lt;/b&gt;&lt;/p&gt;" style="shape=note;whiteSpace=wrap;html=1;backgroundOutline=1;fontColor=#000000;darkOpacity=0.05;fillColor=#f0a30a;strokeColor=#BD7000;fillStyle=solid;direction=west;gradientDirection=north;shadow=1;size=20;pointerEvents=1;align=left;" parent="1" vertex="1">
                    <mxGeometry x="1360" y="122" width="200" height="80" as="geometry"/>
                </mxCell>
                <mxCell id="575" style="edgeStyle=none;html=1;exitX=0.5;exitY=1;exitDx=0;exitDy=0;entryX=0.5;entryY=0;entryDx=0;entryDy=0;fontSize=15;" parent="1" source="565" target="574" edge="1">
                    <mxGeometry relative="1" as="geometry"/>
                </mxCell>
                <mxCell id="565" value="&lt;span style=&quot;font-size: 15px;&quot;&gt;关闭排空阀&lt;br&gt;V8011&lt;br&gt;&lt;/span&gt;" style="whiteSpace=wrap;html=1;fillColor=#647687;strokeColor=#314354;fontColor=#ffffff;" parent="1" vertex="1">
                    <mxGeometry x="1181" y="292" width="120" height="60" as="geometry"/>
                </mxCell>
                <mxCell id="570" value="&lt;font style=&quot;font-size: 15px;&quot;&gt;第4步&lt;/font&gt;" style="shape=offPageConnector;whiteSpace=wrap;html=1;direction=north;" parent="1" vertex="1">
                    <mxGeometry x="1010" y="299.5" width="90" height="45" as="geometry"/>
                </mxCell>
                <mxCell id="577" style="edgeStyle=none;html=1;exitX=0.5;exitY=1;exitDx=0;exitDy=0;entryX=0.5;entryY=0;entryDx=0;entryDy=0;fontSize=15;" parent="1" source="574" target="576" edge="1">
                    <mxGeometry relative="1" as="geometry"/>
                </mxCell>
                <mxCell id="574" value="&lt;font style=&quot;font-size: 15px;&quot;&gt;计时器&lt;br&gt;5s&lt;/font&gt;" style="ellipse;whiteSpace=wrap;html=1;fillColor=#008a00;strokeColor=#005700;fontColor=#ffffff;" parent="1" vertex="1">
                    <mxGeometry x="1201" y="420" width="80" height="80" as="geometry"/>
                </mxCell>
                <mxCell id="579" style="edgeStyle=none;html=1;exitX=0.5;exitY=1;exitDx=0;exitDy=0;entryX=0.5;entryY=0;entryDx=0;entryDy=0;fontSize=15;" parent="1" source="576" target="578" edge="1">
                    <mxGeometry relative="1" as="geometry"/>
                </mxCell>
                <mxCell id="576" value="&lt;span style=&quot;font-size: 15px;&quot;&gt;打开脱水机刮刀&lt;br&gt;KV7001&lt;br&gt;&lt;/span&gt;" style="whiteSpace=wrap;html=1;fillColor=#647687;strokeColor=#314354;fontColor=#ffffff;" parent="1" vertex="1">
                    <mxGeometry x="1181" y="559" width="120" height="60" as="geometry"/>
                </mxCell>
                <mxCell id="581" style="edgeStyle=none;html=1;exitX=0.5;exitY=1;exitDx=0;exitDy=0;entryX=0.5;entryY=0;entryDx=0;entryDy=0;fontSize=15;" parent="1" source="578" target="580" edge="1">
                    <mxGeometry relative="1" as="geometry"/>
                </mxCell>
                <mxCell id="578" value="&lt;font style=&quot;font-size: 15px;&quot;&gt;计时器&lt;br&gt;5s&lt;/font&gt;" style="ellipse;whiteSpace=wrap;html=1;fillColor=#008a00;strokeColor=#005700;fontColor=#ffffff;" parent="1" vertex="1">
                    <mxGeometry x="1201" y="676" width="80" height="80" as="geometry"/>
                </mxCell>
                <mxCell id="585" value="" style="edgeStyle=none;html=1;fontSize=15;" parent="1" source="580" target="584" edge="1">
                    <mxGeometry relative="1" as="geometry"/>
                </mxCell>
                <mxCell id="587" value="" style="edgeStyle=none;html=1;fontSize=15;" parent="1" source="580" target="586" edge="1">
                    <mxGeometry relative="1" as="geometry"/>
                </mxCell>
                <mxCell id="580" value="&lt;span style=&quot;font-size: 15px;&quot;&gt;停止真空泵&lt;br&gt;P7001&lt;br&gt;&lt;/span&gt;" style="whiteSpace=wrap;html=1;fillColor=#647687;strokeColor=#314354;fontColor=#ffffff;" parent="1" vertex="1">
                    <mxGeometry x="1181" y="820" width="120" height="60" as="geometry"/>
                </mxCell>
                <mxCell id="582" value="&lt;font style=&quot;font-size: 15px;&quot;&gt;第5步&lt;/font&gt;" style="shape=offPageConnector;whiteSpace=wrap;html=1;direction=north;" parent="1" vertex="1">
                    <mxGeometry x="1010" y="562" width="90" height="45" as="geometry"/>
                </mxCell>
                <mxCell id="583" value="&lt;font style=&quot;font-size: 15px;&quot;&gt;第6步&lt;/font&gt;" style="shape=offPageConnector;whiteSpace=wrap;html=1;direction=north;" parent="1" vertex="1">
                    <mxGeometry x="1010" y="827.5" width="90" height="45" as="geometry"/>
                </mxCell>
                <mxCell id="588" style="edgeStyle=none;html=1;exitX=0.5;exitY=1;exitDx=0;exitDy=0;entryX=1;entryY=0.5;entryDx=0;entryDy=0;fontSize=15;" parent="1" source="584" target="586" edge="1">
                    <mxGeometry relative="1" as="geometry">
                        <Array as="points">
                            <mxPoint x="1440" y="990"/>
                        </Array>
                    </mxGeometry>
                </mxCell>
                <mxCell id="584" value="&lt;span style=&quot;font-size: 15px;&quot;&gt;关闭阀门&lt;br&gt;V7001&lt;br&gt;&lt;/span&gt;" style="whiteSpace=wrap;html=1;fillColor=#647687;strokeColor=#314354;fontColor=#ffffff;" parent="1" vertex="1">
                    <mxGeometry x="1381" y="820" width="120" height="60" as="geometry"/>
                </mxCell>
                <mxCell id="590" style="edgeStyle=none;html=1;exitX=0.5;exitY=1;exitDx=0;exitDy=0;entryX=0.5;entryY=0;entryDx=0;entryDy=0;fontSize=15;" parent="1" source="586" target="589" edge="1">
                    <mxGeometry relative="1" as="geometry"/>
                </mxCell>
                <mxCell id="586" value="" style="rhombus;whiteSpace=wrap;html=1;fillColor=#647687;strokeColor=#314354;fontColor=#ffffff;" parent="1" vertex="1">
                    <mxGeometry x="1201" y="950" width="80" height="80" as="geometry"/>
                </mxCell>
                <mxCell id="592" style="edgeStyle=none;html=1;exitX=0.5;exitY=1;exitDx=0;exitDy=0;entryX=0.5;entryY=0;entryDx=0;entryDy=0;fontSize=15;" parent="1" source="589" target="591" edge="1">
                    <mxGeometry relative="1" as="geometry"/>
                </mxCell>
                <mxCell id="589" value="&lt;font style=&quot;font-size: 15px;&quot;&gt;计时器&lt;br&gt;5s&lt;/font&gt;" style="ellipse;whiteSpace=wrap;html=1;fillColor=#008a00;strokeColor=#005700;fontColor=#ffffff;" parent="1" vertex="1">
                    <mxGeometry x="1201" y="1071" width="80" height="80" as="geometry"/>
                </mxCell>
                <mxCell id="595" style="edgeStyle=none;html=1;exitX=0.5;exitY=1;exitDx=0;exitDy=0;entryX=0.5;entryY=0;entryDx=0;entryDy=0;fontSize=15;" parent="1" source="591" target="594" edge="1">
                    <mxGeometry relative="1" as="geometry"/>
                </mxCell>
                <mxCell id="591" value="&lt;span style=&quot;font-size: 15px;&quot;&gt;停止滤液泵&lt;br&gt;P7006&lt;br&gt;&lt;/span&gt;" style="whiteSpace=wrap;html=1;fillColor=#647687;strokeColor=#314354;fontColor=#ffffff;" parent="1" vertex="1">
                    <mxGeometry x="1181" y="1221" width="120" height="60" as="geometry"/>
                </mxCell>
                <mxCell id="593" value="&lt;font style=&quot;font-size: 15px;&quot;&gt;第7步&lt;/font&gt;" style="shape=offPageConnector;whiteSpace=wrap;html=1;direction=north;" parent="1" vertex="1">
                    <mxGeometry x="1030" y="1228.5" width="90" height="45" as="geometry"/>
                </mxCell>
                <mxCell id="597" style="edgeStyle=none;html=1;exitX=0.5;exitY=1;exitDx=0;exitDy=0;entryX=0.5;entryY=0;entryDx=0;entryDy=0;fontSize=15;" parent="1" source="594" target="596" edge="1">
                    <mxGeometry relative="1" as="geometry"/>
                </mxCell>
                <mxCell id="594" value="&lt;font style=&quot;font-size: 15px;&quot;&gt;计时器&lt;br&gt;10s&lt;/font&gt;" style="ellipse;whiteSpace=wrap;html=1;fillColor=#008a00;strokeColor=#005700;fontColor=#ffffff;" parent="1" vertex="1">
                    <mxGeometry x="1201" y="1344" width="80" height="80" as="geometry"/>
                </mxCell>
                <mxCell id="600" style="edgeStyle=none;html=1;exitX=0.5;exitY=1;exitDx=0;exitDy=0;entryX=0.5;entryY=0;entryDx=0;entryDy=0;fontSize=15;" parent="1" source="596" target="599" edge="1">
                    <mxGeometry relative="1" as="geometry"/>
                </mxCell>
                <mxCell id="596" value="&lt;span style=&quot;font-size: 15px;&quot;&gt;停止皮带输送机&lt;br&gt;T7001&lt;br&gt;&lt;/span&gt;" style="whiteSpace=wrap;html=1;fillColor=#647687;strokeColor=#314354;fontColor=#ffffff;" parent="1" vertex="1">
                    <mxGeometry x="1181" y="1468" width="120" height="60" as="geometry"/>
                </mxCell>
                <mxCell id="598" value="&lt;font style=&quot;font-size: 15px;&quot;&gt;第8步&lt;/font&gt;" style="shape=offPageConnector;whiteSpace=wrap;html=1;direction=north;" parent="1" vertex="1">
                    <mxGeometry x="1030" y="1475.5" width="90" height="45" as="geometry"/>
                </mxCell>
                <mxCell id="602" style="edgeStyle=none;html=1;exitX=0.5;exitY=1;exitDx=0;exitDy=0;entryX=0.5;entryY=0;entryDx=0;entryDy=0;fontSize=15;" parent="1" source="599" target="601" edge="1">
                    <mxGeometry relative="1" as="geometry"/>
                </mxCell>
                <mxCell id="599" value="&lt;font style=&quot;font-size: 15px;&quot;&gt;计时器&lt;br&gt;5s&lt;/font&gt;" style="ellipse;whiteSpace=wrap;html=1;fillColor=#008a00;strokeColor=#005700;fontColor=#ffffff;" parent="1" vertex="1">
                    <mxGeometry x="1201" y="1582" width="80" height="80" as="geometry"/>
                </mxCell>
                <mxCell id="687" value="" style="edgeStyle=none;html=1;" edge="1" parent="1" source="601" target="686">
                    <mxGeometry relative="1" as="geometry"/>
                </mxCell>
                <mxCell id="693" style="edgeStyle=none;html=1;exitX=0.5;exitY=1;exitDx=0;exitDy=0;entryX=0.5;entryY=0;entryDx=0;entryDy=0;" edge="1" parent="1" source="601" target="692">
                    <mxGeometry relative="1" as="geometry"/>
                </mxCell>
                <mxCell id="601" value="&lt;span style=&quot;font-size: 15px;&quot;&gt;打开阀门&lt;br&gt;V8016&lt;br&gt;&lt;/span&gt;" style="whiteSpace=wrap;html=1;fillColor=#647687;strokeColor=#314354;fontColor=#ffffff;" parent="1" vertex="1">
                    <mxGeometry x="1181" y="1714" width="120" height="60" as="geometry"/>
                </mxCell>
                <mxCell id="603" value="&lt;font style=&quot;font-size: 15px;&quot;&gt;第9步&lt;/font&gt;" style="shape=offPageConnector;whiteSpace=wrap;html=1;direction=north;" parent="1" vertex="1">
                    <mxGeometry x="1030" y="1721.5" width="90" height="45" as="geometry"/>
                </mxCell>
                <mxCell id="604" value="&lt;p style=&quot;font-size: 15px;&quot; class=&quot;MsoNormal&quot;&gt;&lt;b&gt;&lt;span&gt;启动泵前打开V&lt;/span&gt;&lt;span&gt;8016&lt;/span&gt;&lt;span&gt;（其他阀门V&lt;/span&gt;&lt;span&gt;8017&lt;/span&gt;&lt;span&gt;、V&lt;/span&gt;&lt;span&gt;8018&lt;/span&gt;&lt;span&gt;、V&lt;/span&gt;&lt;span&gt;8019&lt;/span&gt;&lt;span&gt;、V&lt;/span&gt;&lt;span&gt;8020&lt;/span&gt;&lt;span&gt;状态为全部关闭）。&lt;/span&gt;&lt;span&gt;每次只清洗一台设备。V&lt;/span&gt;&lt;span&gt;8021&lt;/span&gt;&lt;span&gt;是溢流阀门，正常脱水时打开。最后清洗脱水机时关闭。&lt;/span&gt;&lt;/b&gt;&lt;span&gt;&lt;/span&gt;&lt;/p&gt;" style="shape=note;whiteSpace=wrap;html=1;backgroundOutline=1;fontColor=#000000;darkOpacity=0.05;fillColor=#f0a30a;strokeColor=#BD7000;fillStyle=solid;direction=west;gradientDirection=north;shadow=1;size=20;pointerEvents=1;align=left;" parent="1" vertex="1">
                    <mxGeometry x="1578" y="1694" width="430" height="100" as="geometry"/>
                </mxCell>
                <mxCell id="609" style="edgeStyle=none;html=1;exitX=0.5;exitY=1;exitDx=0;exitDy=0;entryX=0.5;entryY=0;entryDx=0;entryDy=0;fontSize=15;" parent="1" source="605" target="608" edge="1">
                    <mxGeometry relative="1" as="geometry"/>
                </mxCell>
                <mxCell id="605" value="&lt;font style=&quot;font-size: 15px;&quot;&gt;计时T105&lt;br&gt;10s&lt;/font&gt;" style="ellipse;whiteSpace=wrap;html=1;fillColor=#008a00;strokeColor=#005700;fontColor=#ffffff;" parent="1" vertex="1">
                    <mxGeometry x="1201" y="1940" width="80" height="80" as="geometry"/>
                </mxCell>
                <mxCell id="607" value="&lt;p style=&quot;font-size: 15px;&quot; class=&quot;MsoNormal&quot;&gt;&lt;b&gt;&lt;span&gt;滤饼喷淋时间&lt;/span&gt;&lt;span&gt;T&lt;/span&gt;&lt;span&gt;105&lt;/span&gt;&lt;span&gt;：0&lt;/span&gt;&lt;span&gt;~60&lt;/span&gt;&lt;span&gt;秒&lt;/span&gt;&lt;/b&gt;&lt;/p&gt;" style="shape=note;whiteSpace=wrap;html=1;backgroundOutline=1;fontColor=#000000;darkOpacity=0.05;fillColor=#f0a30a;strokeColor=#BD7000;fillStyle=solid;direction=west;gradientDirection=north;shadow=1;size=20;pointerEvents=1;align=left;" parent="1" vertex="1">
                    <mxGeometry x="1341" y="1940" width="200" height="80" as="geometry"/>
                </mxCell>
                <mxCell id="611" value="" style="edgeStyle=none;html=1;fontSize=15;" parent="1" source="608" target="610" edge="1">
                    <mxGeometry relative="1" as="geometry"/>
                </mxCell>
                <mxCell id="613" value="" style="edgeStyle=none;html=1;fontSize=15;" parent="1" source="608" target="612" edge="1">
                    <mxGeometry relative="1" as="geometry"/>
                </mxCell>
                <mxCell id="608" value="&lt;span style=&quot;font-size: 15px;&quot;&gt;关闭高压泵&lt;br&gt;P8007&lt;br&gt;&lt;/span&gt;" style="whiteSpace=wrap;html=1;fillColor=#647687;strokeColor=#314354;fontColor=#ffffff;" parent="1" vertex="1">
                    <mxGeometry x="1181" y="2067" width="120" height="60" as="geometry"/>
                </mxCell>
                <mxCell id="614" style="edgeStyle=none;html=1;exitX=0.5;exitY=1;exitDx=0;exitDy=0;entryX=1;entryY=0.5;entryDx=0;entryDy=0;fontSize=15;" parent="1" source="610" target="612" edge="1">
                    <mxGeometry relative="1" as="geometry">
                        <Array as="points">
                            <mxPoint x="1440" y="2222"/>
                        </Array>
                    </mxGeometry>
                </mxCell>
                <mxCell id="610" value="&lt;span style=&quot;font-size: 15px;&quot;&gt;关闭阀门&lt;br&gt;V8106&lt;br&gt;&lt;/span&gt;" style="whiteSpace=wrap;html=1;fillColor=#647687;strokeColor=#314354;fontColor=#ffffff;" parent="1" vertex="1">
                    <mxGeometry x="1381" y="2067" width="120" height="60" as="geometry"/>
                </mxCell>
                <mxCell id="616" style="edgeStyle=none;html=1;exitX=0.5;exitY=1;exitDx=0;exitDy=0;fontSize=15;" parent="1" source="612" target="615" edge="1">
                    <mxGeometry relative="1" as="geometry"/>
                </mxCell>
                <mxCell id="612" value="" style="rhombus;whiteSpace=wrap;html=1;fillColor=#647687;strokeColor=#314354;fontColor=#ffffff;" parent="1" vertex="1">
                    <mxGeometry x="1201" y="2182" width="80" height="80" as="geometry"/>
                </mxCell>
                <mxCell id="619" style="edgeStyle=none;html=1;exitX=0.5;exitY=1;exitDx=0;exitDy=0;fontSize=15;" parent="1" source="615" target="618" edge="1">
                    <mxGeometry relative="1" as="geometry"/>
                </mxCell>
                <mxCell id="615" value="&lt;font style=&quot;font-size: 15px;&quot;&gt;计时T106&lt;br&gt;60s&lt;/font&gt;" style="ellipse;whiteSpace=wrap;html=1;fillColor=#008a00;strokeColor=#005700;fontColor=#ffffff;" parent="1" vertex="1">
                    <mxGeometry x="1201" y="2324" width="80" height="80" as="geometry"/>
                </mxCell>
                <mxCell id="617" value="&lt;p style=&quot;font-size: 15px;&quot; class=&quot;MsoNormal&quot;&gt;&lt;b&gt;&lt;span&gt;滤饼浸泡时间&lt;/span&gt;&lt;span&gt;T&lt;/span&gt;&lt;span&gt;106&lt;/span&gt;&lt;span&gt;：0&lt;/span&gt;&lt;span&gt;~120&lt;/span&gt;&lt;span&gt;秒&lt;/span&gt;&lt;/b&gt;&lt;/p&gt;" style="shape=note;whiteSpace=wrap;html=1;backgroundOutline=1;fontColor=#000000;darkOpacity=0.05;fillColor=#f0a30a;strokeColor=#BD7000;fillStyle=solid;direction=west;gradientDirection=north;shadow=1;size=20;pointerEvents=1;align=left;" parent="1" vertex="1">
                    <mxGeometry x="1330" y="2324" width="200" height="80" as="geometry"/>
                </mxCell>
                <mxCell id="623" value="" style="edgeStyle=none;html=1;fontSize=15;" parent="1" source="618" target="622" edge="1">
                    <mxGeometry relative="1" as="geometry"/>
                </mxCell>
                <mxCell id="625" value="" style="edgeStyle=none;html=1;fontSize=15;" parent="1" source="618" target="624" edge="1">
                    <mxGeometry relative="1" as="geometry"/>
                </mxCell>
                <mxCell id="618" value="&lt;span style=&quot;font-size: 15px;&quot;&gt;打开排放阀&lt;br&gt;V8026&lt;br&gt;&lt;/span&gt;" style="whiteSpace=wrap;html=1;fillColor=#647687;strokeColor=#314354;fontColor=#ffffff;" parent="1" vertex="1">
                    <mxGeometry x="1181" y="2468" width="120" height="60" as="geometry"/>
                </mxCell>
                <mxCell id="626" style="edgeStyle=none;html=1;exitX=0.5;exitY=1;exitDx=0;exitDy=0;entryX=1;entryY=0.5;entryDx=0;entryDy=0;fontSize=15;" parent="1" source="622" target="624" edge="1">
                    <mxGeometry relative="1" as="geometry">
                        <Array as="points">
                            <mxPoint x="1440" y="2638"/>
                        </Array>
                    </mxGeometry>
                </mxCell>
                <mxCell id="622" value="&lt;span style=&quot;font-size: 15px;&quot;&gt;打开阀门&lt;br&gt;V8032&lt;br&gt;&lt;/span&gt;" style="whiteSpace=wrap;html=1;fillColor=#647687;strokeColor=#314354;fontColor=#ffffff;" parent="1" vertex="1">
                    <mxGeometry x="1382" y="2468" width="120" height="60" as="geometry"/>
                </mxCell>
                <mxCell id="628" style="edgeStyle=none;html=1;exitX=0.5;exitY=1;exitDx=0;exitDy=0;entryX=0.5;entryY=0;entryDx=0;entryDy=0;fontSize=15;" parent="1" source="624" target="627" edge="1">
                    <mxGeometry relative="1" as="geometry"/>
                </mxCell>
                <mxCell id="624" value="" style="rhombus;whiteSpace=wrap;html=1;fillColor=#647687;strokeColor=#314354;fontColor=#ffffff;" parent="1" vertex="1">
                    <mxGeometry x="1201" y="2598" width="80" height="80" as="geometry"/>
                </mxCell>
                <mxCell id="631" style="edgeStyle=none;html=1;exitX=0.5;exitY=1;exitDx=0;exitDy=0;entryX=0.5;entryY=0;entryDx=0;entryDy=0;fontSize=15;" parent="1" source="627" target="630" edge="1">
                    <mxGeometry relative="1" as="geometry"/>
                </mxCell>
                <mxCell id="627" value="&lt;font style=&quot;font-size: 15px;&quot;&gt;计时T110&lt;br&gt;30s&lt;/font&gt;" style="ellipse;whiteSpace=wrap;html=1;fillColor=#008a00;strokeColor=#005700;fontColor=#ffffff;" parent="1" vertex="1">
                    <mxGeometry x="1201" y="2751" width="80" height="80" as="geometry"/>
                </mxCell>
                <mxCell id="629" value="&lt;p style=&quot;font-size: 15px;&quot; class=&quot;MsoNormal&quot;&gt;&lt;b&gt;&lt;span&gt;脱水机溢流汇集主管道冲洗时间&lt;/span&gt;&lt;span&gt;T&lt;/span&gt;&lt;span&gt;110&lt;/span&gt;&lt;span&gt;：0&lt;/span&gt;&lt;span&gt;~180&lt;/span&gt;&lt;span&gt;秒&lt;/span&gt;&lt;/b&gt;&lt;/p&gt;" style="shape=note;whiteSpace=wrap;html=1;backgroundOutline=1;fontColor=#000000;darkOpacity=0.05;fillColor=#f0a30a;strokeColor=#BD7000;fillStyle=solid;direction=west;gradientDirection=north;shadow=1;size=20;pointerEvents=1;align=left;" parent="1" vertex="1">
                    <mxGeometry x="1320" y="2751" width="200" height="80" as="geometry"/>
                </mxCell>
                <mxCell id="633" value="" style="edgeStyle=none;html=1;fontSize=15;" parent="1" source="630" target="632" edge="1">
                    <mxGeometry relative="1" as="geometry"/>
                </mxCell>
                <mxCell id="683" value="" style="edgeStyle=none;html=1;fontSize=15;" parent="1" source="630" target="682" edge="1">
                    <mxGeometry relative="1" as="geometry"/>
                </mxCell>
                <mxCell id="630" value="&lt;span style=&quot;font-size: 15px;&quot;&gt;停止阀门&lt;br&gt;V8032&lt;br&gt;&lt;/span&gt;" style="whiteSpace=wrap;html=1;fillColor=#647687;strokeColor=#314354;fontColor=#ffffff;" parent="1" vertex="1">
                    <mxGeometry x="1181" y="2905" width="120" height="60" as="geometry"/>
                </mxCell>
                <mxCell id="696" style="edgeStyle=none;html=1;exitX=0.5;exitY=1;exitDx=0;exitDy=0;entryX=1;entryY=0.5;entryDx=0;entryDy=0;" edge="1" parent="1" source="632" target="682">
                    <mxGeometry relative="1" as="geometry">
                        <Array as="points">
                            <mxPoint x="1573" y="3080"/>
                        </Array>
                    </mxGeometry>
                </mxCell>
                <mxCell id="632" value="&lt;span style=&quot;font-size: 15px;&quot;&gt;启动高压泵&lt;br&gt;P8007&lt;br&gt;&lt;/span&gt;" style="whiteSpace=wrap;html=1;fillColor=#647687;strokeColor=#314354;fontColor=#ffffff;" parent="1" vertex="1">
                    <mxGeometry x="1513" y="2905" width="120" height="60" as="geometry"/>
                </mxCell>
                <mxCell id="634" value="&lt;p style=&quot;font-size: 15px;&quot; class=&quot;MsoNormal&quot;&gt;&lt;b&gt;&lt;span&gt;启动泵前打开V&lt;/span&gt;&lt;span&gt;8016&lt;/span&gt;&lt;span&gt;（其他阀门V&lt;/span&gt;&lt;span&gt;8017&lt;/span&gt;&lt;span&gt;、V&lt;/span&gt;&lt;span&gt;8018&lt;/span&gt;&lt;span&gt;、V&lt;/span&gt;&lt;span&gt;8019&lt;/span&gt;&lt;span&gt;、V&lt;/span&gt;&lt;span&gt;8020&lt;/span&gt;&lt;span&gt;状态为全部关闭）。&lt;/span&gt;&lt;/b&gt;&lt;span&gt;&lt;/span&gt;&lt;/p&gt;" style="shape=note;whiteSpace=wrap;html=1;backgroundOutline=1;fontColor=#000000;darkOpacity=0.05;fillColor=#f0a30a;strokeColor=#BD7000;fillStyle=solid;direction=west;gradientDirection=north;shadow=1;size=20;pointerEvents=1;align=left;" parent="1" vertex="1">
                    <mxGeometry x="1703" y="2885" width="430" height="100" as="geometry"/>
                </mxCell>
                <mxCell id="635" value="&lt;p style=&quot;&quot; class=&quot;MsoNormal&quot;&gt;&lt;b style=&quot;&quot;&gt;&lt;font style=&quot;font-size: 27px;&quot;&gt;？&lt;/font&gt;&lt;/b&gt;&lt;/p&gt;" style="shape=note;whiteSpace=wrap;html=1;backgroundOutline=1;fontColor=#ffffff;darkOpacity=0.05;fillColor=#e51400;strokeColor=#B20000;fillStyle=solid;direction=west;gradientDirection=north;shadow=1;size=20;pointerEvents=1;align=center;" parent="1" vertex="1">
                    <mxGeometry x="2163" y="2883" width="70" height="77" as="geometry"/>
                </mxCell>
                <mxCell id="636" value="&lt;p style=&quot;&quot; class=&quot;MsoNormal&quot;&gt;&lt;b style=&quot;&quot;&gt;&lt;font style=&quot;font-size: 27px;&quot;&gt;？&lt;/font&gt;&lt;/b&gt;&lt;/p&gt;" style="shape=note;whiteSpace=wrap;html=1;backgroundOutline=1;fontColor=#ffffff;darkOpacity=0.05;fillColor=#e51400;strokeColor=#B20000;fillStyle=solid;direction=west;gradientDirection=north;shadow=1;size=20;pointerEvents=1;align=center;" parent="1" vertex="1">
                    <mxGeometry x="691" y="-739.5" width="70" height="77" as="geometry"/>
                </mxCell>
                <mxCell id="637" value="&lt;p style=&quot;font-size: 15px;&quot; class=&quot;MsoNormal&quot;&gt;&lt;b&gt;&lt;span&gt;降低真空脱水机频率到1&lt;/span&gt;&lt;span&gt;0&lt;/span&gt;&lt;span&gt;Hz（频率可设置）&lt;/span&gt;&lt;span&gt;如果可以自动降低频率，可以设为自动。如果不可以，则人工设置。&lt;/span&gt;&lt;/b&gt;&lt;span&gt;&lt;/span&gt;&lt;/p&gt;" style="shape=note;whiteSpace=wrap;html=1;backgroundOutline=1;fontColor=#000000;darkOpacity=0.05;fillColor=#f0a30a;strokeColor=#BD7000;fillStyle=solid;direction=west;gradientDirection=north;shadow=1;size=20;pointerEvents=1;align=left;" parent="1" vertex="1">
                    <mxGeometry x="1704" y="3022" width="430" height="100" as="geometry"/>
                </mxCell>
                <mxCell id="638" value="&lt;p style=&quot;&quot; class=&quot;MsoNormal&quot;&gt;&lt;b style=&quot;&quot;&gt;&lt;font style=&quot;font-size: 27px;&quot;&gt;？&lt;/font&gt;&lt;/b&gt;&lt;/p&gt;" style="shape=note;whiteSpace=wrap;html=1;backgroundOutline=1;fontColor=#ffffff;darkOpacity=0.05;fillColor=#e51400;strokeColor=#B20000;fillStyle=solid;direction=west;gradientDirection=north;shadow=1;size=20;pointerEvents=1;align=center;" parent="1" vertex="1">
                    <mxGeometry x="2163" y="3021.5" width="70" height="77" as="geometry"/>
                </mxCell>
                <mxCell id="643" style="edgeStyle=none;html=1;exitX=0.5;exitY=1;exitDx=0;exitDy=0;entryX=0.5;entryY=0;entryDx=0;entryDy=0;fontSize=15;" parent="1" source="639" target="642" edge="1">
                    <mxGeometry relative="1" as="geometry"/>
                </mxCell>
                <mxCell id="639" value="&lt;font style=&quot;font-size: 15px;&quot;&gt;计时T107&lt;br&gt;360s&lt;/font&gt;" style="ellipse;whiteSpace=wrap;html=1;fillColor=#008a00;strokeColor=#005700;fontColor=#ffffff;" parent="1" vertex="1">
                    <mxGeometry x="1201" y="3199" width="80" height="80" as="geometry"/>
                </mxCell>
                <mxCell id="641" value="&lt;p style=&quot;font-size: 15px;&quot; class=&quot;MsoNormal&quot;&gt;&lt;b&gt;&lt;span&gt;真空转鼓清洗时间&lt;/span&gt;&lt;span&gt;T&lt;/span&gt;&lt;span&gt;107&lt;/span&gt;&lt;span&gt;：0&lt;/span&gt;&lt;span&gt;~500&lt;/span&gt;&lt;span&gt;秒&lt;/span&gt;&lt;/b&gt;&lt;/p&gt;" style="shape=note;whiteSpace=wrap;html=1;backgroundOutline=1;fontColor=#000000;darkOpacity=0.05;fillColor=#f0a30a;strokeColor=#BD7000;fillStyle=solid;direction=west;gradientDirection=north;shadow=1;size=20;pointerEvents=1;align=left;" parent="1" vertex="1">
                    <mxGeometry x="1320" y="3201" width="200" height="80" as="geometry"/>
                </mxCell>
                <mxCell id="645" value="" style="edgeStyle=none;html=1;fontSize=15;" parent="1" source="642" target="644" edge="1">
                    <mxGeometry relative="1" as="geometry"/>
                </mxCell>
                <mxCell id="647" value="" style="edgeStyle=none;html=1;fontSize=15;" parent="1" source="642" target="646" edge="1">
                    <mxGeometry relative="1" as="geometry"/>
                </mxCell>
                <mxCell id="642" value="&lt;span style=&quot;font-size: 15px;&quot;&gt;停止高压泵&lt;br&gt;P8007&lt;br&gt;&lt;/span&gt;" style="whiteSpace=wrap;html=1;fillColor=#647687;strokeColor=#314354;fontColor=#ffffff;" parent="1" vertex="1">
                    <mxGeometry x="1181" y="3370" width="120" height="60" as="geometry"/>
                </mxCell>
                <mxCell id="648" style="edgeStyle=none;html=1;exitX=0.5;exitY=1;exitDx=0;exitDy=0;entryX=1;entryY=0.5;entryDx=0;entryDy=0;fontSize=15;" parent="1" source="644" target="646" edge="1">
                    <mxGeometry relative="1" as="geometry">
                        <Array as="points">
                            <mxPoint x="1440" y="3540"/>
                        </Array>
                    </mxGeometry>
                </mxCell>
                <mxCell id="644" value="&lt;span style=&quot;font-size: 15px;&quot;&gt;关闭阀门&lt;br&gt;V8016&lt;br&gt;&lt;/span&gt;" style="whiteSpace=wrap;html=1;fillColor=#647687;strokeColor=#314354;fontColor=#ffffff;" parent="1" vertex="1">
                    <mxGeometry x="1380" y="3370" width="120" height="60" as="geometry"/>
                </mxCell>
                <mxCell id="650" style="edgeStyle=none;html=1;exitX=0.5;exitY=1;exitDx=0;exitDy=0;fontSize=15;" parent="1" source="646" target="649" edge="1">
                    <mxGeometry relative="1" as="geometry"/>
                </mxCell>
                <mxCell id="646" value="" style="rhombus;whiteSpace=wrap;html=1;fillColor=#647687;strokeColor=#314354;fontColor=#ffffff;" parent="1" vertex="1">
                    <mxGeometry x="1201" y="3500" width="80" height="80" as="geometry"/>
                </mxCell>
                <mxCell id="653" style="edgeStyle=none;html=1;exitX=0.5;exitY=1;exitDx=0;exitDy=0;fontSize=15;" parent="1" source="649" target="652" edge="1">
                    <mxGeometry relative="1" as="geometry"/>
                </mxCell>
                <mxCell id="649" value="&lt;font style=&quot;font-size: 15px;&quot;&gt;计时T108&lt;br&gt;60s&lt;/font&gt;" style="ellipse;whiteSpace=wrap;html=1;fillColor=#008a00;strokeColor=#005700;fontColor=#ffffff;" parent="1" vertex="1">
                    <mxGeometry x="1201" y="3660" width="80" height="80" as="geometry"/>
                </mxCell>
                <mxCell id="651" value="&lt;p style=&quot;font-size: 15px;&quot; class=&quot;MsoNormal&quot;&gt;&lt;b&gt;&lt;span&gt;真空脱水机排空时间&lt;/span&gt;&lt;span&gt;T&lt;/span&gt;&lt;span&gt;108&lt;/span&gt;&lt;span&gt;：0&lt;/span&gt;&lt;span&gt;~180&lt;/span&gt;&lt;span&gt;秒&lt;/span&gt;&lt;/b&gt;&lt;/p&gt;" style="shape=note;whiteSpace=wrap;html=1;backgroundOutline=1;fontColor=#000000;darkOpacity=0.05;fillColor=#f0a30a;strokeColor=#BD7000;fillStyle=solid;direction=west;gradientDirection=north;shadow=1;size=20;pointerEvents=1;align=left;" parent="1" vertex="1">
                    <mxGeometry x="1334" y="3660" width="200" height="80" as="geometry"/>
                </mxCell>
                <mxCell id="655" value="" style="edgeStyle=none;html=1;fontSize=15;" parent="1" source="652" target="654" edge="1">
                    <mxGeometry relative="1" as="geometry"/>
                </mxCell>
                <mxCell id="658" value="" style="edgeStyle=none;html=1;fontSize=15;" parent="1" source="652" target="657" edge="1">
                    <mxGeometry relative="1" as="geometry"/>
                </mxCell>
                <mxCell id="652" value="&lt;span style=&quot;font-size: 15px;&quot;&gt;关闭排放阀门&lt;br&gt;V8026&lt;br&gt;&lt;/span&gt;" style="whiteSpace=wrap;html=1;fillColor=#647687;strokeColor=#314354;fontColor=#ffffff;" parent="1" vertex="1">
                    <mxGeometry x="1181" y="3830" width="120" height="60" as="geometry"/>
                </mxCell>
                <mxCell id="659" style="edgeStyle=none;html=1;exitX=0.5;exitY=1;exitDx=0;exitDy=0;entryX=1;entryY=0.5;entryDx=0;entryDy=0;fontSize=15;" parent="1" source="654" target="657" edge="1">
                    <mxGeometry relative="1" as="geometry">
                        <Array as="points">
                            <mxPoint x="1440" y="4000"/>
                        </Array>
                    </mxGeometry>
                </mxCell>
                <mxCell id="654" value="&lt;span style=&quot;font-size: 15px;&quot;&gt;打开阀门&lt;br&gt;V8031&lt;br&gt;&lt;/span&gt;" style="whiteSpace=wrap;html=1;fillColor=#647687;strokeColor=#314354;fontColor=#ffffff;" parent="1" vertex="1">
                    <mxGeometry x="1381" y="3830" width="120" height="60" as="geometry"/>
                </mxCell>
                <mxCell id="656" value="&lt;p style=&quot;&quot; class=&quot;MsoNormal&quot;&gt;&lt;b style=&quot;&quot;&gt;&lt;font style=&quot;font-size: 27px;&quot;&gt;？&lt;/font&gt;&lt;/b&gt;&lt;/p&gt;" style="shape=note;whiteSpace=wrap;html=1;backgroundOutline=1;fontColor=#ffffff;darkOpacity=0.05;fillColor=#e51400;strokeColor=#B20000;fillStyle=solid;direction=west;gradientDirection=north;shadow=1;size=20;pointerEvents=1;align=center;" parent="1" vertex="1">
                    <mxGeometry x="1550" y="3821.5" width="70" height="77" as="geometry"/>
                </mxCell>
                <mxCell id="661" style="edgeStyle=none;html=1;exitX=0.5;exitY=1;exitDx=0;exitDy=0;entryX=0.5;entryY=0;entryDx=0;entryDy=0;fontSize=15;" parent="1" source="657" target="660" edge="1">
                    <mxGeometry relative="1" as="geometry"/>
                </mxCell>
                <mxCell id="657" value="" style="rhombus;whiteSpace=wrap;html=1;fillColor=#647687;strokeColor=#314354;fontColor=#ffffff;" parent="1" vertex="1">
                    <mxGeometry x="1201" y="3960" width="80" height="80" as="geometry"/>
                </mxCell>
                <mxCell id="664" style="edgeStyle=none;html=1;exitX=0.5;exitY=1;exitDx=0;exitDy=0;entryX=0.5;entryY=0;entryDx=0;entryDy=0;fontSize=15;" parent="1" source="660" target="663" edge="1">
                    <mxGeometry relative="1" as="geometry"/>
                </mxCell>
                <mxCell id="660" value="&lt;font style=&quot;font-size: 15px;&quot;&gt;计时T109&lt;br&gt;30s&lt;/font&gt;" style="ellipse;whiteSpace=wrap;html=1;fillColor=#008a00;strokeColor=#005700;fontColor=#ffffff;" parent="1" vertex="1">
                    <mxGeometry x="1201" y="4140" width="80" height="80" as="geometry"/>
                </mxCell>
                <mxCell id="662" value="&lt;p style=&quot;font-size: 15px;&quot; class=&quot;MsoNormal&quot;&gt;&lt;b&gt;&lt;span&gt;排空汇集主管道冲洗时间&lt;/span&gt;&lt;span&gt;T&lt;/span&gt;&lt;span&gt;109&lt;/span&gt;&lt;span&gt;：0&lt;/span&gt;&lt;span&gt;~180&lt;/span&gt;&lt;span&gt;秒&lt;/span&gt;&lt;/b&gt;&lt;/p&gt;" style="shape=note;whiteSpace=wrap;html=1;backgroundOutline=1;fontColor=#000000;darkOpacity=0.05;fillColor=#f0a30a;strokeColor=#BD7000;fillStyle=solid;direction=west;gradientDirection=north;shadow=1;size=20;pointerEvents=1;align=left;" parent="1" vertex="1">
                    <mxGeometry x="1330" y="4140" width="200" height="80" as="geometry"/>
                </mxCell>
                <mxCell id="666" style="edgeStyle=none;html=1;exitX=0.5;exitY=1;exitDx=0;exitDy=0;entryX=0.5;entryY=0;entryDx=0;entryDy=0;fontSize=15;" parent="1" source="663" target="665" edge="1">
                    <mxGeometry relative="1" as="geometry"/>
                </mxCell>
                <mxCell id="663" value="&lt;span style=&quot;font-size: 15px;&quot;&gt;停止阀门&lt;br&gt;V8031&lt;br&gt;&lt;/span&gt;" style="whiteSpace=wrap;html=1;fillColor=#647687;strokeColor=#314354;fontColor=#ffffff;" parent="1" vertex="1">
                    <mxGeometry x="1181" y="4320" width="120" height="60" as="geometry"/>
                </mxCell>
                <mxCell id="668" style="edgeStyle=none;html=1;exitX=0.5;exitY=1;exitDx=0;exitDy=0;entryX=0.5;entryY=0;entryDx=0;entryDy=0;fontSize=15;" parent="1" source="665" target="667" edge="1">
                    <mxGeometry relative="1" as="geometry"/>
                </mxCell>
                <mxCell id="665" value="&lt;span style=&quot;font-size: 15px;&quot;&gt;计时器&lt;br&gt;&lt;/span&gt;5s" style="ellipse;whiteSpace=wrap;html=1;fillColor=#008a00;strokeColor=#005700;fontColor=#ffffff;" parent="1" vertex="1">
                    <mxGeometry x="1201" y="4470" width="80" height="80" as="geometry"/>
                </mxCell>
                <mxCell id="670" style="edgeStyle=none;html=1;exitX=0.5;exitY=1;exitDx=0;exitDy=0;entryX=0.5;entryY=0;entryDx=0;entryDy=0;fontSize=15;" parent="1" source="667" target="669" edge="1">
                    <mxGeometry relative="1" as="geometry"/>
                </mxCell>
                <mxCell id="667" value="&lt;span style=&quot;font-size: 15px;&quot;&gt;停止搅拌器&lt;br&gt;A7001&lt;br&gt;&lt;/span&gt;" style="whiteSpace=wrap;html=1;fillColor=#647687;strokeColor=#314354;fontColor=#ffffff;" parent="1" vertex="1">
                    <mxGeometry x="1181.5" y="4640" width="119" height="60" as="geometry"/>
                </mxCell>
                <mxCell id="672" style="edgeStyle=none;html=1;exitX=0.5;exitY=1;exitDx=0;exitDy=0;entryX=0.5;entryY=0;entryDx=0;entryDy=0;fontSize=15;" parent="1" source="669" target="671" edge="1">
                    <mxGeometry relative="1" as="geometry"/>
                </mxCell>
                <mxCell id="669" value="&lt;span style=&quot;font-size: 15px;&quot;&gt;计时器&lt;br&gt;&lt;/span&gt;5s" style="ellipse;whiteSpace=wrap;html=1;fillColor=#008a00;strokeColor=#005700;fontColor=#ffffff;" parent="1" vertex="1">
                    <mxGeometry x="1201" y="4790" width="80" height="80" as="geometry"/>
                </mxCell>
                <mxCell id="671" value="&lt;span style=&quot;font-size: 15px;&quot;&gt;停止真空转鼓&lt;br&gt;F7001&lt;br&gt;&lt;/span&gt;" style="whiteSpace=wrap;html=1;fillColor=#647687;strokeColor=#314354;fontColor=#ffffff;" parent="1" vertex="1">
                    <mxGeometry x="1181.5" y="4960" width="119" height="60" as="geometry"/>
                </mxCell>
                <mxCell id="673" value="&lt;font style=&quot;font-size: 15px;&quot;&gt;第10步&lt;/font&gt;" style="shape=offPageConnector;whiteSpace=wrap;html=1;direction=north;" parent="1" vertex="1">
                    <mxGeometry x="1030" y="2074.5" width="90" height="45" as="geometry"/>
                </mxCell>
                <mxCell id="674" value="&lt;font style=&quot;font-size: 15px;&quot;&gt;第11步&lt;/font&gt;" style="shape=offPageConnector;whiteSpace=wrap;html=1;direction=north;" parent="1" vertex="1">
                    <mxGeometry x="1030" y="2475.5" width="90" height="45" as="geometry"/>
                </mxCell>
                <mxCell id="676" value="&lt;font style=&quot;font-size: 15px;&quot;&gt;第12步&lt;/font&gt;" style="shape=offPageConnector;whiteSpace=wrap;html=1;direction=north;" parent="1" vertex="1">
                    <mxGeometry x="1030" y="2912.5" width="90" height="45" as="geometry"/>
                </mxCell>
                <mxCell id="677" value="&lt;font style=&quot;font-size: 15px;&quot;&gt;第13步&lt;/font&gt;" style="shape=offPageConnector;whiteSpace=wrap;html=1;direction=north;" parent="1" vertex="1">
                    <mxGeometry x="1030" y="3377.5" width="90" height="45" as="geometry"/>
                </mxCell>
                <mxCell id="678" value="&lt;font style=&quot;font-size: 15px;&quot;&gt;第14步&lt;/font&gt;" style="shape=offPageConnector;whiteSpace=wrap;html=1;direction=north;" parent="1" vertex="1">
                    <mxGeometry x="1030" y="3837.5" width="90" height="45" as="geometry"/>
                </mxCell>
                <mxCell id="679" value="&lt;font style=&quot;font-size: 15px;&quot;&gt;第15步&lt;/font&gt;" style="shape=offPageConnector;whiteSpace=wrap;html=1;direction=north;" parent="1" vertex="1">
                    <mxGeometry x="1030" y="4327.5" width="90" height="45" as="geometry"/>
                </mxCell>
                <mxCell id="680" value="&lt;font style=&quot;font-size: 15px;&quot;&gt;第16步&lt;/font&gt;" style="shape=offPageConnector;whiteSpace=wrap;html=1;direction=north;" parent="1" vertex="1">
                    <mxGeometry x="1030" y="4647.5" width="90" height="45" as="geometry"/>
                </mxCell>
                <mxCell id="681" value="&lt;font style=&quot;font-size: 15px;&quot;&gt;第17步&lt;/font&gt;" style="shape=offPageConnector;whiteSpace=wrap;html=1;direction=north;" parent="1" vertex="1">
                    <mxGeometry x="1030" y="4967.5" width="90" height="45" as="geometry"/>
                </mxCell>
                <mxCell id="684" style="edgeStyle=none;html=1;exitX=0.5;exitY=1;exitDx=0;exitDy=0;entryX=0.5;entryY=0;entryDx=0;entryDy=0;fontSize=15;" parent="1" source="682" target="639" edge="1">
                    <mxGeometry relative="1" as="geometry"/>
                </mxCell>
                <mxCell id="682" value="" style="rhombus;whiteSpace=wrap;html=1;fillColor=#647687;strokeColor=#314354;fontColor=#ffffff;" parent="1" vertex="1">
                    <mxGeometry x="1201" y="3039" width="80" height="80" as="geometry"/>
                </mxCell>
                <mxCell id="695" style="edgeStyle=none;html=1;exitX=0.5;exitY=1;exitDx=0;exitDy=0;entryX=1;entryY=0.5;entryDx=0;entryDy=0;" edge="1" parent="1" source="686" target="692">
                    <mxGeometry relative="1" as="geometry">
                        <Array as="points">
                            <mxPoint x="1440" y="1860"/>
                        </Array>
                    </mxGeometry>
                </mxCell>
                <mxCell id="686" value="&lt;span style=&quot;font-size: 15px;&quot;&gt;启动高压泵&lt;br&gt;P8007&lt;br&gt;&lt;/span&gt;" style="whiteSpace=wrap;html=1;fillColor=#647687;strokeColor=#314354;fontColor=#ffffff;" vertex="1" parent="1">
                    <mxGeometry x="1381" y="1714" width="120" height="60" as="geometry"/>
                </mxCell>
                <mxCell id="694" style="edgeStyle=none;html=1;exitX=0.5;exitY=1;exitDx=0;exitDy=0;entryX=0.5;entryY=0;entryDx=0;entryDy=0;" edge="1" parent="1" source="692" target="605">
                    <mxGeometry relative="1" as="geometry"/>
                </mxCell>
                <mxCell id="692" value="" style="rhombus;whiteSpace=wrap;html=1;fillColor=#647687;strokeColor=#314354;fontColor=#ffffff;" vertex="1" parent="1">
                    <mxGeometry x="1201" y="1820" width="80" height="80" as="geometry"/>
                </mxCell>
            </root>
        </mxGraphModel>
    </diagram>
</mxfile>